<?xml version="1.0" standalone="no"?>
<!DOCTYPE svg PUBLIC "-//W3C//DTD SVG 20010904//EN"
 "http://www.w3.org/TR/2001/REC-SVG-20010904/DTD/svg10.dtd">
<svg version="1.0" xmlns="http://www.w3.org/2000/svg"
 width="1000.000000pt" height="590.000000pt" viewBox="0 0 1000.000000 590.000000"
 preserveAspectRatio="xMidYMid meet">

<g transform="translate(0.000000,590.000000) scale(0.100000,-0.100000)"
fill="#000000" stroke="none">
<path d="M1075 5431 c-3 -2 -5 -12 -5 -21 0 -9 228 -518 506 -1131 l505 -1113
-132 -271 c-73 -148 -217 -440 -319 -648 l-185 -377 -105 -4 c-117 -3 -180
-21 -245 -67 -64 -46 -75 -70 -101 -231 -5 -29 -13 -39 -38 -49 -51 -22 -150
-129 -184 -200 -41 -86 -49 -119 -29 -119 13 0 11 -15 -14 -87 -16 -48 -34
-92 -39 -97 -15 -15 -12 -26 7 -26 44 0 -97 -108 -152 -117 -19 -3 -35 -9 -35
-14 0 -12 79 -32 101 -26 36 10 19 -12 -43 -53 -34 -22 -88 -48 -120 -57 -32
-9 -55 -20 -50 -25 17 -17 168 -48 236 -48 l71 -1 -35 -29 c-19 -16 -43 -32
-52 -35 -10 -4 -18 -11 -18 -16 0 -17 91 -9 183 16 22 6 27 4 27 -12 0 -10 -7
-29 -16 -42 l-17 -23 44 7 c24 4 63 18 86 31 l42 24 6 -32 c3 -18 7 -43 8 -56
1 -15 6 -21 15 -17 7 3 15 5 17 5 2 0 20 23 40 51 l37 51 20 -33 c22 -36 49
-60 59 -53 4 2 9 16 13 31 3 16 13 37 21 48 14 17 17 18 25 5 5 -8 10 -27 10
-42 0 -34 7 -35 55 -3 35 25 38 25 51 8 7 -10 14 -29 14 -43 1 -25 1 -24 34
11 l34 37 21 -29 c26 -35 41 -37 41 -6 0 12 7 33 16 46 l16 22 25 -23 c14 -13
30 -36 37 -53 l13 -30 21 35 c12 19 22 43 22 53 0 29 24 14 35 -21 5 -18 13
-32 17 -32 15 0 79 64 95 94 9 17 22 54 28 81 l12 50 15 -50 15 -50 17 72 c28
123 38 266 27 363 -11 89 -39 186 -66 227 -21 32 -19 99 5 132 67 95 32 242
-76 325 -25 19 -50 36 -56 38 -11 4 491 1127 503 1128 7 0 509 -1103 509
-1119 0 -6 -4 -11 -9 -11 -21 0 -120 -103 -140 -145 -30 -63 -28 -139 4 -199
32 -60 32 -109 0 -179 -43 -93 -57 -186 -52 -332 5 -127 32 -285 49 -285 4 0
8 10 8 23 0 13 7 32 15 43 13 18 14 16 15 -20 0 -53 34 -119 78 -156 20 -17
39 -30 42 -30 3 0 13 19 24 43 18 42 18 42 26 15 10 -34 42 -88 52 -88 4 0 8
9 8 20 0 11 13 34 29 52 29 32 30 33 45 13 8 -11 17 -33 21 -50 l6 -30 28 31
28 31 29 -35 28 -36 8 31 c4 17 15 36 23 43 13 11 19 9 38 -7 12 -12 31 -23
42 -27 17 -5 20 -1 21 25 2 57 21 57 48 -1 l25 -53 29 29 c16 16 31 36 35 44
4 11 18 1 52 -38 26 -28 51 -52 56 -52 5 0 9 13 9 29 0 16 5 42 10 56 l10 26
28 -20 c29 -20 119 -48 128 -39 2 3 -3 19 -13 36 -10 17 -15 33 -12 36 3 3 38
-1 79 -10 40 -8 89 -14 107 -12 l34 3 -55 40 -56 40 93 6 c88 6 185 28 216 48
10 6 -2 12 -39 20 -63 14 -138 53 -175 90 l-25 28 28 -5 c16 -2 46 4 68 14
l39 17 -35 7 c-44 8 -74 24 -127 68 -45 36 -53 52 -28 52 19 0 19 14 1 30 -13
10 -66 150 -66 173 0 4 7 7 15 7 12 0 12 5 1 38 -41 117 -114 213 -206 272
-37 24 -49 38 -53 63 -4 18 -10 58 -16 91 -22 133 -149 206 -358 206 l-74 0
-196 398 c-356 723 -435 887 -436 897 0 6 177 399 393 875 656 1445 623 1370
611 1384 -14 17 -85 14 -107 -4 -14 -13 -157 -298 -786 -1572 -122 -247 -224
-448 -228 -448 -4 0 -26 42 -50 93 -145 306 -949 1915 -965 1927 -17 14 -89
22 -100 11z m52 -26 c6 10 16 13 28 9 11 -5 152 -277 397 -773 209 -421 393
-793 408 -826 15 -33 168 -343 339 -689 171 -346 311 -630 311 -632 0 -1 74
-152 165 -335 91 -183 165 -341 165 -351 0 -49 -142 -79 -189 -40 -12 9 -84
154 -160 322 -109 239 -1076 2369 -1435 3161 -64 140 -82 196 -52 156 13 -17
15 -17 23 -2z m2127 -1 c5 -13 9 -14 21 -4 9 7 17 11 19 9 3 -3 -184 -426
-236 -534 -8 -16 -183 -400 -388 -852 -205 -453 -376 -823 -379 -823 -7 0 -81
157 -81 171 0 10 550 1128 827 1684 184 368 200 394 217 349z m-1143 -2306
c12 -29 10 -41 -19 -127 -18 -53 -68 -170 -112 -261 -79 -166 -119 -271 -57
-150 18 36 58 113 89 171 31 58 71 152 89 209 l33 104 23 -51 23 -50 -264
-583 c-146 -320 -273 -588 -283 -596 -41 -31 -174 -8 -187 33 -4 13 96 227
316 676 178 361 326 657 329 657 4 0 12 -14 20 -32z m-756 -1282 c42 -20 47
-25 30 -30 -106 -36 -179 -102 -190 -176 l-6 -35 25 46 c32 59 105 123 162
143 43 15 46 14 81 -10 20 -13 47 -24 61 -24 24 0 24 -2 18 -47 -3 -26 -21
-77 -38 -113 -44 -89 -44 -90 -4 -47 38 42 66 112 66 163 0 27 4 32 31 38 68
13 69 12 69 -57 0 -55 -7 -93 -36 -196 -14 -47 14 -11 37 47 16 42 21 78 21
135 0 85 -5 79 58 61 11 -3 34 -26 52 -52 37 -53 49 -135 29 -195 -20 -60 -28
-62 -149 -48 -164 19 -338 63 -452 113 -201 89 -211 99 -170 184 32 66 132
122 220 123 19 0 58 -10 85 -23z m1845 5 c93 -35 150 -95 150 -155 0 -29 -42
-60 -147 -107 -188 -84 -494 -151 -598 -131 -47 9 -68 90 -45 173 14 48 77
116 115 124 l30 5 0 -87 c1 -70 5 -99 24 -140 13 -29 28 -53 33 -53 6 0 7 8 2
18 -32 73 -53 208 -38 246 12 31 94 15 94 -18 0 -63 70 -206 101 -206 6 0 1
14 -11 30 -24 33 -54 114 -65 171 -7 35 -6 36 29 42 20 3 49 15 65 27 l30 20
54 -24 c65 -29 130 -90 148 -140 14 -39 35 -51 24 -13 -26 84 -88 150 -160
169 -25 7 -44 17 -42 23 5 15 86 44 124 44 18 1 56 -8 83 -18z m-2180 -336 c0
-3 -16 -21 -36 -41 -62 -64 -116 -199 -128 -319 -6 -56 -4 -54 19 35 32 124
74 208 130 259 50 46 60 48 108 25 l34 -16 -38 -57 c-49 -72 -69 -150 -69
-276 0 -55 -5 -133 -10 -174 -6 -41 -8 -76 -6 -78 9 -9 28 110 36 227 10 136
24 188 72 262 45 71 62 80 107 60 20 -9 37 -17 38 -17 1 0 -5 -23 -12 -52 -21
-81 -35 -233 -26 -278 8 -39 9 -38 10 22 1 75 23 193 46 251 15 36 21 43 39
38 29 -9 186 -46 214 -52 19 -4 22 -11 22 -47 1 -62 27 -198 41 -211 9 -8 10
-6 5 9 -14 39 -30 225 -21 233 6 5 34 7 63 4 50 -4 54 -6 78 -48 37 -63 64
-138 79 -219 12 -66 13 -67 14 -25 2 68 -40 204 -86 280 -2 3 9 5 24 5 22 0
30 -8 48 -50 33 -75 45 -144 45 -265 0 -101 -17 -266 -27 -257 -2 2 -6 15 -8
28 -10 54 -31 121 -76 241 -66 176 -104 246 -55 100 34 -100 64 -225 75 -310
12 -95 -4 -160 -49 -207 l-33 -34 -24 37 c-14 20 -36 45 -49 55 l-25 19 6 -36
c4 -20 4 -48 1 -62 -6 -22 -9 -24 -22 -13 -33 27 -36 48 -18 121 20 84 15 211
-12 279 -10 24 -28 82 -40 129 -30 116 -30 60 1 -88 41 -196 31 -314 -34 -409
l-28 -42 -19 41 -18 40 -19 -43 -18 -44 -35 40 c-25 28 -37 36 -41 26 -3 -7
-15 -23 -26 -34 l-21 -21 -14 43 c-18 55 -39 51 -74 -14 l-26 -49 -23 46 c-19
40 -25 45 -41 37 -10 -6 -32 -28 -47 -50 -31 -42 -34 -42 -45 6 -13 53 -23 57
-74 24 -65 -41 -75 -39 -66 16 7 50 5 51 -35 30 -16 -8 -54 -18 -84 -23 l-55
-9 52 48 51 48 -85 -5 c-51 -3 -113 0 -155 8 l-69 13 67 33 c59 29 187 136
176 147 -2 2 -28 -3 -58 -11 -30 -7 -56 -12 -58 -10 -2 2 16 15 40 29 24 15
67 52 96 82 53 59 67 87 29 61 -29 -21 -41 -20 -28 2 6 9 23 53 39 97 15 44
32 89 36 99 7 16 5 18 -14 13 -19 -5 -21 -2 -15 16 35 115 186 273 235 246 11
-5 19 -12 19 -14z m2431 -7 c24 -18 52 -42 62 -53 30 -33 84 -119 101 -159 14
-35 14 -38 0 -32 -22 8 -38 -3 -25 -18 6 -7 25 -56 44 -108 l33 -97 -28 15
c-28 14 -29 14 -20 -3 18 -33 102 -113 149 -143 l48 -30 -35 6 c-19 3 -47 10
-62 14 -16 5 -28 5 -28 1 0 -19 122 -121 176 -147 l57 -28 -29 -9 c-16 -5 -82
-10 -146 -11 -65 0 -118 -4 -118 -7 0 -4 21 -25 48 -47 l47 -40 -55 10 c-30 5
-70 16 -88 24 l-34 14 4 -45 c2 -25 0 -45 -4 -45 -18 0 -65 24 -86 43 -23 22
-24 22 -38 3 -7 -11 -17 -35 -20 -54 l-7 -35 -47 54 -47 54 -22 -43 c-23 -46
-36 -52 -46 -23 -8 26 -44 71 -56 71 -5 0 -18 -19 -27 -41 l-18 -42 -26 31
-26 31 -25 -27 c-13 -15 -27 -34 -30 -42 -3 -10 -13 3 -27 34 l-22 49 -20 -44
-19 -43 -35 61 c-60 107 -66 210 -25 401 20 93 32 177 25 169 -3 -2 -13 -40
-24 -83 -11 -44 -28 -104 -38 -134 -25 -70 -38 -155 -23 -145 6 3 11 -1 11 -9
0 -8 -5 -18 -10 -21 -10 -6 -7 -42 10 -105 15 -52 12 -82 -11 -109 -17 -21
-22 -22 -30 -10 -12 19 -11 56 2 81 6 11 8 22 6 24 -9 9 -77 -58 -83 -82 -8
-31 -14 -30 -47 3 -37 39 -57 94 -57 154 0 67 32 224 70 340 17 50 29 94 26
96 -11 12 -146 -362 -146 -406 0 -50 -19 -4 -29 72 -30 216 13 456 83 469 14
3 26 4 26 3 0 -1 -14 -33 -31 -70 -33 -74 -59 -179 -58 -235 l1 -35 8 35 c5
19 13 60 20 91 12 60 68 187 91 205 8 7 38 14 68 15 l54 4 -7 -95 c-3 -52 -8
-111 -11 -130 -4 -32 -3 -31 11 10 8 25 18 84 21 132 l6 87 56 11 c31 6 87 20
124 31 37 11 72 17 77 14 14 -9 50 -133 57 -197 6 -62 23 -80 23 -25 -1 29
-17 130 -35 212 -6 28 -3 32 32 48 l38 18 39 -43 c72 -80 86 -129 105 -354 6
-67 15 -132 20 -145 13 -31 13 -14 1 96 -5 50 -10 134 -11 189 -2 62 -7 100
-14 102 -7 3 -12 18 -12 33 0 17 -14 49 -36 79 -20 27 -37 53 -37 56 0 9 64
36 83 36 26 0 103 -85 131 -145 16 -33 39 -100 53 -150 23 -87 24 -88 18 -32
-7 73 -51 209 -76 236 -10 11 -19 26 -19 34 0 7 -16 28 -36 46 -35 30 -36 32
-18 46 25 19 24 20 75 -17z"/>
<path d="M1990 3605 c0 -43 22 -149 36 -174 l15 -26 -5 25 c-3 14 -10 56 -16
94 -11 72 -29 120 -30 81z"/>
<path d="M2086 3393 c4 -16 13 -46 20 -68 l12 -40 1 38 c1 34 -22 97 -34 97
-3 0 -2 -12 1 -27z"/>
<path d="M2212 3128 c10 -15 38 -88 63 -163 29 -88 75 -194 130 -300 105 -204
113 -186 9 23 -42 84 -93 203 -115 263 -43 121 -72 184 -91 195 -7 5 -5 -4 4
-18z"/>
<path d="M2570 2350 c0 -21 59 -144 66 -137 3 3 1 21 -5 39 -14 43 -60 117
-61 98z"/>
<path d="M2381 3598 c-11 -28 -40 -182 -35 -187 9 -10 34 73 42 138 9 75 7 85
-7 49z"/>
<path d="M2280 3395 c-14 -35 -25 -105 -17 -105 10 0 39 109 34 123 -3 6 -10
-1 -17 -18z"/>
<path d="M1803 2348 c-22 -27 -53 -98 -53 -120 1 -15 13 4 35 51 33 70 40 97
18 69z"/>
<path d="M1235 1795 c-22 -8 -54 -30 -72 -49 -36 -39 -61 -112 -44 -129 8 -8
11 -6 11 8 0 65 74 142 159 165 22 6 41 13 41 15 0 10 -56 4 -95 -10z"/>
<path d="M1365 1693 c-42 -40 -65 -88 -65 -130 1 -23 6 -18 29 32 15 33 40 75
56 93 39 46 26 50 -20 5z"/>
<path d="M1744 1582 c0 -60 -5 -87 -23 -122 l-23 -45 25 24 c35 32 50 82 45
147 -7 86 -23 83 -24 -4z"/>
<path d="M3110 1785 c77 -28 123 -74 141 -137 13 -49 24 -35 15 18 -14 71
-109 144 -186 143 -32 0 -29 -2 30 -24z"/>
<path d="M3005 1678 c20 -23 43 -64 52 -90 19 -52 36 -55 26 -5 -7 41 -37 91
-70 117 -43 33 -47 23 -8 -22z"/>
<path d="M2621 1623 c-16 -50 -8 -115 20 -162 24 -39 35 -36 18 5 -7 16 -15
67 -18 114 l-7 85 -13 -42z"/>
<path d="M1138 987 c-24 -108 -75 -210 -144 -286 -32 -35 -49 -59 -37 -53 35
19 113 113 144 174 32 64 62 176 57 217 -2 16 -9 -3 -20 -52z"/>
<path d="M987 977 c-13 -93 -46 -158 -116 -226 -49 -48 -57 -60 -33 -45 44 25
105 92 130 141 24 46 46 153 33 166 -4 4 -11 -11 -14 -36z"/>
<path d="M892 904 c-44 -87 -87 -141 -129 -163 -32 -17 -34 -20 -15 -21 37 0
108 75 149 157 20 40 33 76 30 79 -3 3 -19 -20 -35 -52z"/>
<path d="M1438 897 c-9 -12 -37 -65 -63 -117 -26 -52 -56 -107 -67 -122 -11
-16 -15 -28 -10 -28 15 0 79 103 122 196 40 86 47 117 18 71z"/>
<path d="M1244 823 c-8 -21 -23 -56 -31 -78 -9 -22 -20 -44 -25 -49 -11 -14
-10 -29 2 -21 22 14 96 185 79 185 -5 0 -16 -17 -25 -37z"/>
<path d="M3139 1083 c0 -5 -2 -18 -3 -30 -2 -13 1 -23 6 -23 4 0 8 14 8 30 0
26 -8 44 -11 23z"/>
<path d="M3226 1020 c24 -144 41 -188 107 -275 40 -53 107 -116 107 -100 0 3
-23 29 -50 57 -60 61 -125 187 -141 273 -12 64 -34 105 -23 45z"/>
<path d="M3384 966 c6 -78 53 -173 109 -221 69 -60 86 -62 26 -3 -65 63 -92
111 -120 211 l-19 72 4 -59z"/>
<path d="M3456 948 c13 -42 63 -135 90 -167 26 -32 82 -67 91 -58 2 3 -9 13
-26 23 -36 21 -77 76 -120 162 -31 62 -48 81 -35 40z"/>
<path d="M2964 828 c42 -93 95 -180 116 -193 6 -3 -8 27 -30 67 -22 40 -51 96
-65 123 -49 97 -65 99 -21 3z"/>
<path d="M3110 857 c0 -15 50 -137 66 -162 29 -44 25 -22 -12 66 -32 75 -54
115 -54 96z"/>
<path d="M4084 4681 c-25 -15 -31 -26 -30 -49 1 -17 4 -34 8 -37 4 -4 -2 -20
-14 -35 -12 -17 -18 -35 -14 -47 11 -34 59 -71 108 -84 41 -11 49 -11 65 3 17
16 58 9 603 -97 322 -63 1060 -206 1640 -319 580 -113 1069 -208 1085 -211 30
-7 31 -8 30 -67 0 -54 3 -62 29 -85 26 -22 36 -25 78 -20 46 6 48 5 53 -21 20
-95 64 -177 113 -210 21 -14 22 -13 15 3 -3 10 25 -15 64 -56 39 -41 74 -71
77 -68 3 3 2 19 -3 36 -8 28 -2 24 58 -37 36 -37 81 -75 99 -84 32 -17 34 -17
28 1 -24 81 -23 82 42 21 33 -32 63 -58 65 -58 3 0 2 20 -1 45 -2 25 -2 45 1
45 3 0 15 -16 27 -35 21 -34 110 -95 138 -95 6 0 12 11 12 24 0 53 9 58 48 26
69 -55 167 -74 255 -49 l38 10 -51 51 c-51 50 -59 69 -22 49 33 -17 113 -12
162 10 35 16 41 22 30 29 -10 7 9 10 58 10 39 0 72 3 72 6 0 3 -9 18 -21 32
l-21 27 89 6 c169 11 334 91 466 227 l48 49 -127 -5 c-175 -7 -301 18 -469 93
l-60 27 33 14 33 14 -18 31 c-10 18 -39 47 -65 66 -52 38 -59 48 -28 38 50
-16 -6 68 -75 113 -19 12 -19 12 5 8 14 -3 38 -8 54 -12 l29 -7 -19 32 c-29
49 -124 136 -180 164 -55 27 -134 47 -197 48 -39 0 -40 1 -17 11 l25 10 -30
14 c-16 7 -46 13 -65 14 -34 1 -34 1 -11 14 22 12 20 13 -35 24 -78 16 -227
15 -290 -2 -119 -32 -224 -115 -283 -225 -34 -64 -34 -64 -125 -46 -41 8 -75
-29 -85 -95 l-6 -36 -840 187 c-1935 429 -2616 579 -2632 579 -10 0 -32 -9
-49 -19z m1320 -280 c694 -154 1488 -330 1766 -391 278 -62 511 -116 518 -122
23 -19 12 -25 -45 -22 l-58 4 49 -13 c52 -13 65 -27 44 -45 -10 -7 -40 -5
-108 8 -52 11 -387 75 -745 144 -357 69 -670 130 -695 135 -25 6 -371 74 -770
151 -399 78 -826 161 -950 186 -124 25 -241 47 -260 49 l-35 5 34 -13 c48 -19
55 -42 10 -33 -38 7 -75 31 -95 62 -12 17 -12 23 0 40 12 16 27 19 100 19 93
0 102 12 15 21 -80 8 -101 13 -93 25 3 6 24 9 46 7 34 -3 37 -2 22 9 -10 7
-30 13 -46 13 -15 0 -28 5 -28 10 0 10 34 28 54 29 6 1 577 -125 1270 -278z
m2871 -162 c37 -11 38 -12 18 -20 -33 -12 -28 -16 15 -16 22 0 47 -5 58 -11
18 -11 18 -12 -3 -18 -38 -10 -26 -20 25 -21 66 -1 121 -18 174 -53 42 -28
123 -118 114 -127 -2 -3 -48 11 -103 29 -89 30 -109 33 -213 33 -99 -1 -126
-5 -195 -29 -44 -15 -95 -36 -113 -47 -19 -11 -39 -16 -45 -13 -7 4 -9 4 -5
-1 4 -4 -9 -20 -30 -35 -20 -15 -46 -38 -57 -50 -11 -13 5 -5 36 18 190 142
456 165 670 59 64 -32 87 -65 42 -59 -32 4 -29 -1 15 -31 31 -22 81 -85 70
-88 -2 0 -14 -3 -27 -5 -14 -2 -27 -6 -29 -8 -6 -7 86 -57 157 -86 100 -41
174 -56 296 -59 63 -2 63 -1 6 -40 -11 -8 -17 -19 -14 -24 4 -6 -32 -8 -99 -5
-82 5 -118 11 -169 32 -92 39 -96 40 -72 18 12 -11 19 -23 15 -27 -4 -5 -2 -5
4 -2 6 4 30 -2 52 -13 23 -11 76 -25 118 -31 l77 -12 -54 -23 c-101 -43 -146
-49 -213 -25 -78 27 -297 152 -289 164 3 6 1 7 -4 4 -6 -4 -44 9 -85 28 -86
41 -185 68 -231 63 -38 -5 -24 -11 58 -27 72 -13 165 -56 316 -146 63 -38 132
-76 154 -86 22 -11 29 -16 15 -13 -24 7 -24 6 -7 -19 9 -15 17 -29 17 -32 0
-9 -81 -5 -102 6 -26 14 -38 1 -15 -15 25 -19 22 -23 -23 -31 -47 -8 -94 1
-115 22 -13 12 -15 12 -15 0 0 -14 35 -65 55 -79 14 -11 -13 -28 -45 -28 -45
0 -99 20 -144 55 l-44 33 -13 -35 -14 -34 -22 20 c-12 12 -26 21 -30 21 -5 0
-17 14 -27 30 l-18 31 29 -6 28 -7 -30 20 c-16 10 -51 31 -77 46 -97 55 -208
178 -208 231 0 8 -4 15 -10 15 -16 0 -12 -33 10 -74 10 -22 17 -43 14 -48 -3
-5 -2 -8 3 -6 4 1 31 -20 58 -46 28 -27 74 -62 103 -78 40 -23 52 -35 52 -54
0 -13 -5 -24 -11 -24 -12 0 -64 59 -64 74 0 5 -5 11 -10 13 -7 2 -9 -13 -7
-39 4 -42 4 -43 -15 -25 -11 9 -23 15 -26 12 -4 -3 -5 -2 -2 1 2 4 -14 27 -35
52 -36 40 -45 60 -41 85 0 4 -4 7 -10 7 -7 0 -10 -15 -7 -39 l3 -39 -26 22
c-14 11 -37 45 -50 73 -27 58 -39 68 -32 26 l5 -28 -21 25 c-11 14 -21 30 -21
35 0 6 -4 4 -8 -3 -6 -8 -9 -3 -9 16 0 22 8 34 29 46 80 48 123 235 72 314 -8
12 -12 28 -8 35 4 7 4 9 -1 5 -4 -4 -14 -3 -21 3 -10 8 -10 16 1 42 8 18 19
31 24 30 6 -2 7 5 4 14 -4 10 -2 14 4 10 9 -6 35 34 38 58 0 6 7 9 14 7 8 -2
21 4 30 11 68 60 215 80 336 46z m-515 -203 c0 -2 -7 -7 -16 -10 -8 -3 -12 -2
-9 4 6 10 25 14 25 6z m1127 -102 c-3 -3 -12 -4 -19 -1 -8 3 -5 6 6 6 11 1 17
-2 13 -5z m-1130 -130 c-3 -3 -12 -4 -19 -1 -8 3 -5 6 6 6 11 1 17 -2 13 -5z
m-26 -71 c13 -16 12 -17 -3 -4 -10 7 -18 15 -18 17 0 8 8 3 21 -13z m1749
-197 c0 -2 -8 -10 -17 -17 -16 -13 -17 -12 -4 4 13 16 21 21 21 13z m-517
-113 c-7 -2 -21 -2 -30 0 -10 3 -4 5 12 5 17 0 24 -2 18 -5z m-1006 -25 c-3
-8 -6 -5 -6 6 -1 11 2 17 5 13 3 -3 4 -12 1 -19z m950 -4 c-3 -3 -12 -4 -19
-1 -8 3 -5 6 6 6 11 1 17 -2 13 -5z m-192 -214 c10 -11 16 -20 13 -20 -3 0
-13 9 -23 20 -10 11 -16 20 -13 20 3 0 13 -9 23 -20z"/>
<path d="M4340 4534 c0 -6 61 -30 114 -43 55 -14 319 -51 324 -46 8 7 -73 26
-218 50 -86 14 -170 29 -188 34 -18 5 -32 8 -32 5z"/>
<path d="M4580 4435 c0 -9 66 -35 87 -34 12 0 8 5 -12 14 -44 19 -75 27 -75
20z"/>
<path d="M5324 4329 c31 -19 113 -38 256 -59 74 -10 143 -22 153 -25 9 -4 17
-4 17 -1 0 14 -61 29 -225 57 -93 15 -181 31 -195 34 -23 6 -23 5 -6 -6z"/>
<path d="M5916 4189 c8 -14 68 -39 91 -39 17 1 17 1 1 11 -32 18 -99 39 -92
28z"/>
<path d="M6406 4116 c10 -26 58 -46 106 -45 l43 1 -51 13 c-27 6 -62 20 -77
30 -25 16 -27 16 -21 1z"/>
<path d="M6650 4047 c15 -15 90 -40 98 -32 4 4 -47 27 -89 40 -21 6 -22 6 -9
-8z"/>
<path d="M7206 3961 c5 -5 60 -25 121 -46 62 -20 115 -41 118 -46 4 -5 11 -9
16 -9 6 0 8 4 5 9 -4 5 -1 11 6 13 14 5 -120 55 -199 73 -70 17 -80 18 -67 6z"/>
<path d="M7984 4112 c-53 -25 -108 -102 -84 -117 6 -4 10 0 10 8 0 24 58 80
76 73 8 -3 13 -2 9 3 -7 13 74 29 116 23 27 -3 32 -2 22 8 -21 22 -103 23
-149 2z"/>
<path d="M8316 4096 c-71 -28 -62 -40 14 -20 70 18 127 18 179 -1 54 -19 53
-2 -2 24 -55 27 -116 26 -191 -3z"/>
<path d="M7986 4009 c2 -3 -8 -17 -21 -29 -38 -35 -30 -45 11 -14 24 19 46 27
70 26 34 -1 50 17 17 20 -47 4 -81 2 -77 -3z"/>
<path d="M8170 3894 c-45 -16 -130 -59 -130 -66 0 -11 1 -11 52 12 74 33 177
43 260 25 40 -8 74 -13 76 -10 3 3 -12 12 -34 22 -38 17 -192 28 -224 17z"/>
<path d="M8340 3792 c30 -11 100 -41 155 -69 116 -58 166 -76 197 -71 18 3 13
7 -21 17 -25 7 -99 40 -164 73 -86 43 -133 60 -171 64 l-51 4 55 -18z"/>
<path d="M7976 3752 c-4 -6 -2 -21 4 -32 6 -11 8 -26 4 -32 -4 -7 -3 -8 4 -4
11 7 38 -32 34 -47 -1 -5 2 -6 7 -3 5 4 31 -7 58 -23 26 -17 62 -33 78 -36 35
-7 30 -2 -55 48 -30 19 -54 39 -52 46 1 7 -1 10 -6 7 -12 -7 -48 32 -60 63 -5
16 -11 20 -16 13z"/>
<path d="M8220 3459 c1 -34 45 -66 113 -83 40 -10 33 10 -9 24 -20 7 -51 26
-70 42 -20 18 -34 25 -34 17z"/>
<path d="M9465 2733 c-16 -2 -316 -42 -665 -89 -1010 -135 -2928 -395 -3045
-414 -33 -5 -83 -12 -111 -15 l-52 -5 -28 47 c-39 68 -131 161 -184 188 -74
38 -126 41 -185 11 -27 -14 -57 -26 -65 -26 -9 0 -25 -7 -37 -15 -19 -13 -26
-12 -80 13 -54 25 -67 27 -188 27 -132 -1 -206 -16 -175 -35 8 -5 12 -11 10
-13 -13 -10 -159 -47 -187 -47 -25 0 -31 -4 -27 -15 4 -10 0 -15 -15 -15 -33
0 -129 40 -161 67 l-30 25 0 -25 c0 -13 11 -41 25 -61 l25 -37 -22 7 c-84 25
-134 51 -179 92 l-52 47 7 -40 c9 -48 68 -177 102 -222 13 -17 24 -34 24 -37
0 -6 -44 7 -93 28 l-39 16 19 -29 c25 -40 73 -93 107 -119 l28 -22 -27 -10
c-14 -5 -33 -10 -41 -10 -8 0 -14 -4 -14 -9 0 -14 61 -62 98 -78 28 -11 31
-16 22 -33 -5 -10 -24 -29 -42 -41 -28 -21 -29 -23 -12 -30 10 -4 38 -8 61 -8
68 -1 74 -7 57 -46 -8 -19 -14 -44 -14 -56 0 -22 7 -22 70 -4 8 3 22 0 30 -5
13 -9 10 -14 -14 -36 -27 -24 -28 -26 -10 -39 11 -8 31 -17 47 -20 32 -8 33
-11 8 -52 -23 -37 -19 -43 26 -43 37 0 36 4 17 -61 -6 -19 -3 -21 17 -15 13 5
36 10 51 13 25 5 28 2 28 -23 0 -16 -9 -44 -20 -61 l-20 -33 41 0 c22 0 49 5
60 10 24 14 24 3 -1 -38 -11 -18 -20 -34 -20 -36 0 -2 14 -9 31 -15 49 -17
129 -13 177 9 48 22 53 15 16 -25 -14 -15 -24 -29 -22 -31 2 -1 49 16 104 40
186 79 341 199 406 312 35 63 93 104 145 104 119 1 213 116 213 262 0 52 2 58
23 63 12 3 495 84 1072 181 2261 378 2814 472 2824 479 14 8 14 45 1 45 -5 0
-10 6 -10 14 0 29 -48 47 -105 39z m65 -23 c11 -6 16 -17 13 -29 -3 -13 1 -21
14 -23 15 -4 14 -6 -7 -11 -14 -4 -347 -61 -740 -127 -393 -66 -1102 -185
-1575 -264 -1365 -230 -1582 -266 -1598 -266 -30 0 -84 58 -97 104 -14 53 -7
84 23 91 12 2 324 45 692 95 369 50 999 135 1400 190 872 118 1725 233 1848
249 5 1 17 -3 27 -9z m-4167 -280 c89 -42 147 -125 147 -209 0 -19 -4 -18 -45
14 -68 52 -132 65 -207 44 -56 -15 -46 -24 23 -21 75 5 137 -12 188 -49 34
-24 39 -33 43 -81 3 -29 9 -60 12 -70 6 -13 -4 -20 -50 -38 -32 -11 -87 -24
-122 -27 -49 -5 -60 -8 -47 -16 28 -15 129 -1 187 25 l53 25 28 -35 c20 -27
24 -38 16 -48 -21 -25 -114 -72 -176 -90 -35 -9 -63 -21 -63 -26 0 -5 8 -7 18
-5 9 3 35 8 56 12 51 9 124 46 155 79 14 14 27 26 31 26 15 0 29 -67 21 -100
-17 -76 -58 -127 -123 -155 -42 -17 -113 -21 -103 -5 3 6 1 10 -5 10 -6 0 -8
5 -5 10 3 6 1 10 -4 10 -12 0 -65 100 -54 100 5 0 3 4 -3 8 -15 10 -52 94 -85
189 -43 126 -71 258 -73 341 -1 72 0 77 24 89 38 19 114 16 163 -7z m-372 -17
c35 -15 48 -27 51 -47 4 -20 2 -26 -8 -22 -40 15 -135 16 -203 2 -63 -13 -237
-83 -228 -92 1 -2 45 13 97 33 112 42 237 55 305 30 35 -12 40 -19 51 -60 l12
-47 -67 0 c-92 0 -152 -20 -246 -82 -44 -29 -116 -72 -160 -95 -44 -23 -73
-43 -65 -43 22 0 113 44 205 100 103 62 177 84 267 78 38 -3 71 -8 74 -11 3
-2 6 -24 7 -47 l2 -43 -50 -17 c-89 -30 -265 -134 -251 -147 3 -3 17 4 33 15
68 48 224 112 273 112 11 0 22 -18 34 -57 10 -32 31 -86 46 -120 l29 -62 -42
-32 c-59 -45 -136 -120 -149 -144 -6 -11 16 5 48 36 73 69 142 115 153 103 4
-5 19 -28 32 -52 l23 -43 -34 -67 c-20 -38 -64 -97 -105 -139 -38 -40 -67 -73
-62 -73 17 0 153 148 182 198 17 28 33 52 37 52 4 0 10 -11 14 -25 17 -70
-171 -243 -358 -329 -76 -36 -94 -38 -61 -9 24 21 153 178 153 186 0 3 23 38
50 78 66 95 64 111 -2 23 -77 -103 -237 -260 -289 -283 -43 -20 -103 -26 -146
-15 l-21 6 19 41 c20 45 25 97 10 97 -5 0 -12 -8 -16 -18 -5 -19 -44 -42 -70
-42 -11 0 -11 6 -2 32 10 25 25 37 77 60 36 16 76 34 90 41 34 17 148 125 165
156 7 14 40 54 72 89 93 99 52 72 -55 -36 -169 -171 -229 -209 -358 -221 -41
-4 -74 -5 -74 -3 0 3 10 20 21 39 l22 35 -48 -8 c-45 -6 -48 -5 -40 12 4 11
10 33 12 50 5 29 3 31 -26 31 -42 0 -47 7 -22 39 11 15 21 33 21 40 0 18 -35
27 -81 19 l-39 -7 10 28 c6 16 16 34 22 42 18 21 -5 35 -66 40 l-54 4 29 41
c16 22 29 43 29 47 0 4 -18 12 -39 19 -21 6 -49 20 -62 30 l-23 18 37 18 c20
9 37 20 37 24 0 4 -18 21 -40 37 -22 17 -49 42 -60 56 l-19 25 56 -13 c32 -7
59 -11 61 -9 3 2 -9 21 -25 42 -45 58 -81 118 -103 172 l-19 50 42 -28 c48
-33 142 -67 207 -76 l45 -6 -43 36 c-43 38 -57 64 -24 46 42 -23 111 -41 172
-46 65 -6 65 -6 35 11 l-29 17 69 19 c39 10 90 22 114 26 24 4 46 13 49 20 2
6 -1 12 -7 12 -6 0 -11 4 -11 9 0 14 45 19 155 17 77 -2 111 -7 146 -23z"/>
<path d="M7462 2362 c-87 -39 -95 -55 -15 -28 54 18 136 65 113 65 -8 0 -52
-16 -98 -37z"/>
<path d="M7278 2353 c-21 -8 -38 -19 -38 -25 0 -11 28 -4 85 22 34 16 36 18
15 19 -14 0 -42 -7 -62 -16z"/>
<path d="M6855 2285 c-71 -19 -188 -41 -260 -50 -128 -16 -220 -34 -212 -42 2
-2 35 1 73 6 38 6 117 15 175 21 58 6 153 24 210 41 57 16 133 36 169 44 63
13 63 13 20 13 -25 0 -103 -15 -175 -33z"/>
<path d="M6093 2169 c-18 -5 -33 -12 -33 -16 0 -8 121 7 140 17 20 13 -64 11
-107 -1z"/>
<path d="M5244 2366 c-18 -8 -35 -20 -39 -27 -6 -9 -3 -10 11 -4 28 12 100 18
138 11 19 -4 55 -22 80 -42 53 -40 61 -33 14 14 -61 58 -139 76 -204 48z"/>
<path d="M5330 2183 c-38 -6 -80 -24 -80 -34 0 -5 12 -6 28 -2 15 5 62 8 106
7 68 0 76 1 60 13 -10 7 -25 13 -33 13 -9 0 -25 2 -36 4 -11 2 -31 2 -45 -1z"/>
<path d="M5537 1804 c-46 -32 -102 -54 -138 -54 -9 0 -16 -6 -16 -14 0 -11 9
-11 60 0 60 14 96 35 131 73 30 33 15 31 -37 -5z"/>
<path d="M4250 2150 c0 -15 60 -39 114 -46 49 -7 186 13 186 27 0 5 -12 6 -27
2 -57 -15 -206 -8 -240 10 -20 10 -33 13 -33 7z"/>
<path d="M4581 2083 c-72 -34 -167 -41 -245 -19 -69 20 -84 14 -30 -10 59 -27
205 -26 264 2 48 23 92 54 75 53 -5 0 -34 -12 -64 -26z"/>
<path d="M4682 1969 c-95 -38 -200 -53 -283 -39 -88 14 -113 11 -59 -7 108
-35 294 -11 395 52 51 31 38 30 -53 -6z"/>
<path d="M4557 1780 c-95 -19 -120 -30 -68 -30 43 0 169 29 176 41 8 11 0 11
-108 -11z"/>
<path d="M4665 1660 c-27 -5 -78 -9 -113 -9 -45 -1 -61 -4 -56 -12 8 -14 166
-5 264 15 l65 14 -55 -1 c-30 0 -77 -3 -105 -7z"/>
</g>
</svg>
